<svg width="40" height="40" viewBox="0 0 40 40" fill="none" xmlns="http://www.w3.org/2000/svg">
<path d="M12.6943 0.5H26.793L38.5 12.207V34.793C38.4998 37.3646 36.2642 39.4999 33.4404 39.5H12.5703C9.73516 39.5 7.50023 37.364 7.5 34.793V5.20703C7.50013 2.64972 9.84436 0.500142 12.6943 0.5Z" fill="white" stroke="#DBDBDB"/>
<path d="M27.0257 8.16V0L39 12H31.0171C27.4248 12 26.8593 9.44 27.0257 8.16Z" fill="#D4D4D8"/>
<rect x="1" y="19" width="32" height="12" rx="3" fill="#D92D20"/>
<path d="M6.20086 24.927H10.7929V25.669H6.20086V24.927ZM5.54286 27.146H11.4159V27.895H5.54286V27.146ZM8.00686 25.368H8.93786V27.356H8.00686V25.368ZM6.20086 22.631H7.13186V25.249H6.20086V22.631ZM11.9893 25.186H17.8483V25.921H11.9893V25.186ZM14.4533 24.213H15.3843V25.473H14.4533V24.213ZM12.6963 23.919H17.1833V24.647H12.6963V23.919ZM12.6963 22.414H17.1483V23.149H13.6203V24.381H12.6963V22.414ZM14.8943 26.243C15.5943 26.243 16.145 26.348 16.5463 26.558C16.9476 26.7633 17.1483 27.0573 17.1483 27.44C17.1483 27.818 16.9476 28.1097 16.5463 28.315C16.145 28.525 15.5943 28.63 14.8943 28.63C14.1943 28.63 13.6436 28.525 13.2423 28.315C12.8456 28.1097 12.6473 27.818 12.6473 27.44C12.6473 27.0573 12.8456 26.7633 13.2423 26.558C13.6436 26.348 14.1943 26.243 14.8943 26.243ZM14.8943 26.95C14.605 26.95 14.3623 26.9687 14.1663 27.006C13.975 27.0387 13.8303 27.0923 13.7323 27.167C13.6343 27.237 13.5853 27.3257 13.5853 27.433C13.5853 27.545 13.6343 27.6383 13.7323 27.713C13.8303 27.783 13.975 27.8367 14.1663 27.874C14.3623 27.9067 14.605 27.923 14.8943 27.923C15.1836 27.923 15.424 27.9067 15.6153 27.874C15.8113 27.8367 15.9583 27.783 16.0563 27.713C16.1543 27.6383 16.2033 27.545 16.2033 27.433C16.2033 27.3257 16.1543 27.237 16.0563 27.167C15.9583 27.0923 15.8113 27.0387 15.6153 27.006C15.424 26.9687 15.1836 26.95 14.8943 26.95ZM21.9218 23.457H23.5248V24.199H21.9218V23.457ZM19.8848 22.68H20.6408V23.044C20.6408 23.4033 20.5731 23.7557 20.4378 24.101C20.3071 24.4417 20.1041 24.7427 19.8288 25.004C19.5581 25.2607 19.2151 25.4497 18.7998 25.571L18.3658 24.85C18.6271 24.766 18.8511 24.6587 19.0378 24.528C19.2291 24.3927 19.3878 24.2433 19.5138 24.08C19.6398 23.9167 19.7331 23.7463 19.7938 23.569C19.8544 23.3917 19.8848 23.2167 19.8848 23.044V22.68ZM20.0738 22.68H20.8298V23.044C20.8298 23.268 20.8811 23.4897 20.9838 23.709C21.0864 23.9283 21.2451 24.1267 21.4598 24.304C21.6744 24.4767 21.9498 24.612 22.2858 24.71L21.8518 25.438C21.4504 25.3213 21.1168 25.144 20.8508 24.906C20.5894 24.6633 20.3934 24.381 20.2628 24.059C20.1368 23.737 20.0738 23.3987 20.0738 23.044V22.68ZM18.6108 22.379H22.0968V23.121H18.6108V22.379ZM22.9088 22.141H23.8398V25.431H22.9088V22.141ZM19.5558 25.69H23.8398V27.44H20.4868V28.259H19.5698V26.768H22.9228V26.404H19.5558V25.69ZM19.5698 27.832H24.0288V28.553H19.5698V27.832ZM25.6158 28.0646C25.4517 28.0646 25.3108 28.0066 25.1932 27.8906C25.0772 27.773 25.0192 27.6321 25.0192 27.468C25.0192 27.3056 25.0772 27.1664 25.1932 27.0504C25.3108 26.9344 25.4517 26.8764 25.6158 26.8764C25.7749 26.8764 25.9141 26.9344 26.0334 27.0504C26.1527 27.1664 26.2124 27.3056 26.2124 27.468C26.2124 27.5774 26.1842 27.6777 26.1278 27.7688C26.0732 27.8583 26.0011 27.9304 25.9116 27.9851C25.8221 28.0381 25.7235 28.0646 25.6158 28.0646ZM27.7007 28.0646C27.5367 28.0646 27.3958 28.0066 27.2781 27.8906C27.1621 27.773 27.1041 27.6321 27.1041 27.468C27.1041 27.3056 27.1621 27.1664 27.2781 27.0504C27.3958 26.9344 27.5367 26.8764 27.7007 26.8764C27.8598 26.8764 27.999 26.9344 28.1183 27.0504C28.2377 27.1664 28.2973 27.3056 28.2973 27.468C28.2973 27.5774 28.2691 27.6777 28.2128 27.7688C28.1581 27.8583 28.086 27.9304 27.9965 27.9851C27.907 28.0381 27.8084 28.0646 27.7007 28.0646Z" fill="white"/>
</svg>
