<svg width="40" height="40" viewBox="0 0 40 40" fill="none" xmlns="http://www.w3.org/2000/svg">
<path d="M12.6943 0.5H26.793L38.5 12.207V34.793C38.4998 37.3646 36.2642 39.4999 33.4404 39.5H12.5703C9.73516 39.5 7.50023 37.364 7.5 34.793V5.20703C7.50013 2.64972 9.84436 0.500142 12.6943 0.5Z" fill="white" stroke="#DBDBDB"/>
<path d="M27.0257 8.16V0L39 12H31.0171C27.4248 12 26.8593 9.44 27.0257 8.16Z" fill="#D4D4D8"/>
<rect x="1" y="19" width="38" height="12" rx="3" fill="#D92D20"/>
<path d="M9.48813 22.134H10.4191V25.788H9.48813V22.134ZM10.1671 23.499H11.2801V24.262H10.1671V23.499ZM6.20513 26.082H10.4191V28.553H6.20513V26.082ZM9.51613 26.817H7.12213V27.818H9.51613V26.817ZM5.58213 22.442H6.51313V25.095H5.58213V22.442ZM5.58213 24.696H6.12113C6.56447 24.696 7.02413 24.6797 7.50013 24.647C7.9808 24.6097 8.47547 24.542 8.98413 24.444L9.08913 25.186C8.56647 25.2933 8.05547 25.368 7.55613 25.41C7.06147 25.4473 6.58313 25.466 6.12113 25.466H5.58213V24.696ZM16.2706 22.134H17.2016V28.637H16.2706V22.134ZM14.5626 23.478H16.5716V24.234H14.5626V23.478ZM12.0916 22.806H13.0156V26.831H12.0916V22.806ZM12.0916 26.467H12.6166C12.9853 26.467 13.3213 26.4623 13.6246 26.453C13.9326 26.4437 14.2266 26.425 14.5066 26.397C14.7866 26.3643 15.0713 26.32 15.3606 26.264L15.4516 27.027C15.1576 27.083 14.8636 27.1273 14.5696 27.16C14.2803 27.188 13.9769 27.209 13.6596 27.223C13.3423 27.2323 12.9946 27.237 12.6166 27.237H12.0916V26.467ZM14.5626 24.941H16.5716V25.69H14.5626V24.941ZM18.804 22.687H22.906V23.429H18.804V22.687ZM18.202 27.083H24.068V27.839H18.202V27.083ZM20.274 24.857H21.212V27.461H20.274V24.857ZM22.57 22.687H23.508V23.303C23.508 23.5737 23.5034 23.8607 23.494 24.164C23.4894 24.4673 23.4684 24.8033 23.431 25.172C23.3984 25.5407 23.3377 25.9537 23.249 26.411L22.318 26.313C22.4487 25.6643 22.5234 25.0997 22.542 24.619C22.5607 24.1337 22.57 23.695 22.57 23.303V22.687ZM25.9575 24.304H26.8815V25.494H25.9575V24.304ZM28.2325 24.304H29.1635V25.494H28.2325V24.304ZM24.6345 25.214H30.5005V25.942H24.6345V25.214ZM27.5535 26.271C28.2535 26.271 28.8042 26.3737 29.2055 26.579C29.6068 26.7797 29.8075 27.069 29.8075 27.447C29.8075 27.8203 29.6068 28.1097 29.2055 28.315C28.8042 28.5203 28.2535 28.623 27.5535 28.623C26.8535 28.623 26.3028 28.5203 25.9015 28.315C25.5048 28.1097 25.3065 27.8203 25.3065 27.447C25.3065 27.069 25.5048 26.7797 25.9015 26.579C26.3028 26.3737 26.8535 26.271 27.5535 26.271ZM27.5535 26.971C27.2642 26.971 27.0215 26.9897 26.8255 27.027C26.6342 27.0597 26.4895 27.111 26.3915 27.181C26.2935 27.251 26.2445 27.3397 26.2445 27.447C26.2445 27.5543 26.2935 27.6453 26.3915 27.72C26.4895 27.79 26.6342 27.8413 26.8255 27.874C27.0215 27.9067 27.2642 27.923 27.5535 27.923C27.8428 27.923 28.0832 27.9067 28.2745 27.874C28.4705 27.8413 28.6175 27.79 28.7155 27.72C28.8135 27.6453 28.8625 27.5543 28.8625 27.447C28.8625 27.3397 28.8135 27.251 28.7155 27.181C28.6175 27.111 28.4705 27.0597 28.2745 27.027C28.0832 26.9897 27.8428 26.971 27.5535 26.971ZM27.5675 22.232C28.0482 22.232 28.4635 22.2833 28.8135 22.386C29.1682 22.484 29.4412 22.6263 29.6325 22.813C29.8238 22.9997 29.9195 23.2213 29.9195 23.478C29.9195 23.7347 29.8238 23.9563 29.6325 24.143C29.4412 24.325 29.1682 24.4673 28.8135 24.57C28.4635 24.668 28.0482 24.717 27.5675 24.717C27.0962 24.717 26.6832 24.668 26.3285 24.57C25.9738 24.4673 25.7008 24.325 25.5095 24.143C25.3182 23.9563 25.2225 23.7347 25.2225 23.478C25.2225 23.2213 25.3182 22.9997 25.5095 22.813C25.7008 22.6263 25.9738 22.484 26.3285 22.386C26.6832 22.2833 27.0962 22.232 27.5675 22.232ZM27.5675 22.939C27.2782 22.939 27.0285 22.96 26.8185 23.002C26.6085 23.0393 26.4498 23.0977 26.3425 23.177C26.2398 23.2563 26.1885 23.3567 26.1885 23.478C26.1885 23.5947 26.2398 23.6927 26.3425 23.772C26.4498 23.8513 26.6085 23.912 26.8185 23.954C27.0285 23.9913 27.2782 24.01 27.5675 24.01C27.8662 24.01 28.1182 23.9913 28.3235 23.954C28.5288 23.912 28.6852 23.8513 28.7925 23.772C28.8998 23.6927 28.9535 23.5947 28.9535 23.478C28.9535 23.3567 28.8998 23.2563 28.7925 23.177C28.6852 23.0977 28.5288 23.0393 28.3235 23.002C28.1182 22.96 27.8662 22.939 27.5675 22.939ZM31.8355 28.0646C31.6714 28.0646 31.5306 28.0066 31.4129 27.8906C31.2969 27.773 31.2389 27.6321 31.2389 27.468C31.2389 27.3056 31.2969 27.1664 31.4129 27.0504C31.5306 26.9344 31.6714 26.8764 31.8355 26.8764C31.9946 26.8764 32.1338 26.9344 32.2531 27.0504C32.3724 27.1664 32.4321 27.3056 32.4321 27.468C32.4321 27.5774 32.4039 27.6777 32.3476 27.7688C32.2929 27.8583 32.2208 27.9304 32.1313 27.9851C32.0418 28.0381 31.9432 28.0646 31.8355 28.0646ZM33.9205 28.0646C33.7564 28.0646 33.6155 28.0066 33.4979 27.8906C33.3819 27.773 33.3239 27.6321 33.3239 27.468C33.3239 27.3056 33.3819 27.1664 33.4979 27.0504C33.6155 26.9344 33.7564 26.8764 33.9205 26.8764C34.0795 26.8764 34.2188 26.9344 34.3381 27.0504C34.4574 27.1664 34.517 27.3056 34.517 27.468C34.517 27.5774 34.4889 27.6777 34.4325 27.7688C34.3778 27.8583 34.3058 27.9304 34.2163 27.9851C34.1268 28.0381 34.0282 28.0646 33.9205 28.0646Z" fill="white"/>
</svg>
