<svg width="40" height="40" viewBox="0 0 40 40" fill="none" xmlns="http://www.w3.org/2000/svg">
<path d="M12.6943 0.5H26.793L38.5 12.207V34.793C38.4998 37.3646 36.2642 39.4999 33.4404 39.5H12.5703C9.73516 39.5 7.50023 37.364 7.5 34.793V5.20703C7.50013 2.64972 9.84436 0.500142 12.6943 0.5Z" fill="white" stroke="#DBDBDB"/>
<path d="M27.0257 8.16V0L39 12H31.0171C27.4248 12 26.8593 9.44 27.0257 8.16Z" fill="#D4D4D8"/>
<rect x="1" y="19" width="38" height="12" rx="3" fill="#D92D20"/>
<path d="M9.77513 22.141H10.7061V25.41H9.77513V22.141ZM6.38713 25.697H10.7061V27.454H7.31113V28.105H6.39413V26.789H9.78213V26.411H6.38713V25.697ZM6.39413 27.853H10.8671V28.581H6.39413V27.853ZM6.84213 22.288H7.61213V22.771C7.61213 23.1677 7.54447 23.5457 7.40913 23.905C7.2738 24.2643 7.06613 24.577 6.78613 24.843C6.5108 25.109 6.1608 25.3073 5.73613 25.438L5.28813 24.703C5.5588 24.619 5.79213 24.5093 5.98813 24.374C6.18413 24.2387 6.34513 24.0847 6.47113 23.912C6.59713 23.7393 6.69047 23.5573 6.75113 23.366C6.8118 23.17 6.84213 22.9717 6.84213 22.771V22.288ZM7.03113 22.288H7.78713V22.771C7.78713 22.967 7.81747 23.1583 7.87813 23.345C7.9388 23.527 8.0298 23.6997 8.15113 23.863C8.27247 24.0263 8.4288 24.171 8.62013 24.297C8.81147 24.423 9.0378 24.5233 9.29913 24.598L8.85113 25.326C8.54313 25.2327 8.2748 25.1043 8.04613 24.941C7.81747 24.773 7.62613 24.577 7.47213 24.353C7.3228 24.1243 7.2108 23.877 7.13613 23.611C7.06613 23.345 7.03113 23.065 7.03113 22.771V22.288ZM15.0386 23.569H16.6626V24.318H15.0386V23.569ZM13.5476 22.407C13.8743 22.407 14.1659 22.4747 14.4226 22.61C14.6839 22.7407 14.8893 22.9227 15.0386 23.156C15.1879 23.3847 15.2626 23.6507 15.2626 23.954C15.2626 24.2527 15.1879 24.5187 15.0386 24.752C14.8893 24.9853 14.6839 25.1697 14.4226 25.305C14.1659 25.4357 13.8743 25.501 13.5476 25.501C13.2256 25.501 12.9339 25.4357 12.6726 25.305C12.4159 25.1697 12.2129 24.9853 12.0636 24.752C11.9143 24.5187 11.8396 24.2527 11.8396 23.954C11.8396 23.6507 11.9143 23.3847 12.0636 23.156C12.2129 22.9227 12.4159 22.7407 12.6726 22.61C12.9339 22.4747 13.2256 22.407 13.5476 22.407ZM13.5476 23.177C13.3889 23.177 13.2466 23.2073 13.1206 23.268C12.9993 23.3287 12.9036 23.4173 12.8336 23.534C12.7636 23.6507 12.7286 23.7907 12.7286 23.954C12.7286 24.1127 12.7636 24.2503 12.8336 24.367C12.9036 24.4837 12.9993 24.5723 13.1206 24.633C13.2466 24.6937 13.3889 24.724 13.5476 24.724C13.7063 24.724 13.8463 24.6937 13.9676 24.633C14.0936 24.5723 14.1916 24.4837 14.2616 24.367C14.3316 24.2503 14.3666 24.1127 14.3666 23.954C14.3666 23.7907 14.3316 23.6507 14.2616 23.534C14.1916 23.4173 14.0936 23.3287 13.9676 23.268C13.8463 23.2073 13.7063 23.177 13.5476 23.177ZM16.2496 22.141H17.1876V25.62H16.2496V22.141ZM12.8826 25.907H13.8066V26.516H16.2636V25.907H17.1876V28.553H12.8826V25.907ZM13.8066 27.23V27.811H16.2636V27.23H13.8066ZM18.895 25.83H19.812V26.502H22.437V25.83H23.361V28.553H18.895V25.83ZM19.812 27.223V27.811H22.437V27.223H19.812ZM18.923 22.393H23.025V23.135H18.923V22.393ZM18.202 24.661H24.075V25.41H18.202V24.661ZM22.465 22.393H23.382V22.911C23.382 23.1817 23.375 23.4687 23.361 23.772C23.347 24.0707 23.2957 24.423 23.207 24.829L22.269 24.892C22.367 24.472 22.423 24.1057 22.437 23.793C22.4557 23.4803 22.465 23.1863 22.465 22.911V22.393ZM27.5395 23.457H29.3035V24.206H27.5395V23.457ZM27.5395 25.473H29.3035V26.222H27.5395V25.473ZM26.4125 22.582C26.7345 22.582 27.0215 22.6777 27.2735 22.869C27.5302 23.0557 27.7285 23.324 27.8685 23.674C28.0132 24.0193 28.0855 24.4277 28.0855 24.899C28.0855 25.375 28.0132 25.788 27.8685 26.138C27.7285 26.4833 27.5302 26.7517 27.2735 26.943C27.0215 27.1297 26.7345 27.223 26.4125 27.223C26.0905 27.223 25.8035 27.1297 25.5515 26.943C25.2995 26.7517 25.1012 26.4833 24.9565 26.138C24.8118 25.788 24.7395 25.375 24.7395 24.899C24.7395 24.4277 24.8118 24.0193 24.9565 23.674C25.1012 23.324 25.2995 23.0557 25.5515 22.869C25.8035 22.6777 26.0905 22.582 26.4125 22.582ZM26.4125 23.429C26.2585 23.429 26.1208 23.485 25.9995 23.597C25.8828 23.709 25.7895 23.8747 25.7195 24.094C25.6542 24.3087 25.6215 24.577 25.6215 24.899C25.6215 25.2163 25.6542 25.487 25.7195 25.711C25.7895 25.9303 25.8828 26.096 25.9995 26.208C26.1208 26.32 26.2585 26.376 26.4125 26.376C26.5758 26.376 26.7158 26.32 26.8325 26.208C26.9492 26.096 27.0402 25.9303 27.1055 25.711C27.1708 25.487 27.2035 25.2163 27.2035 24.899C27.2035 24.577 27.1708 24.3087 27.1055 24.094C27.0402 23.8747 26.9492 23.709 26.8325 23.597C26.7158 23.485 26.5758 23.429 26.4125 23.429ZM29.1495 22.127H30.0805V28.63H29.1495V22.127ZM31.8355 28.0646C31.6714 28.0646 31.5306 28.0066 31.4129 27.8906C31.2969 27.773 31.2389 27.6321 31.2389 27.468C31.2389 27.3056 31.2969 27.1664 31.4129 27.0504C31.5306 26.9344 31.6714 26.8764 31.8355 26.8764C31.9946 26.8764 32.1338 26.9344 32.2531 27.0504C32.3724 27.1664 32.4321 27.3056 32.4321 27.468C32.4321 27.5774 32.4039 27.6777 32.3476 27.7688C32.2929 27.8583 32.2208 27.9304 32.1313 27.9851C32.0418 28.0381 31.9432 28.0646 31.8355 28.0646ZM33.9205 28.0646C33.7564 28.0646 33.6155 28.0066 33.4979 27.8906C33.3819 27.773 33.3239 27.6321 33.3239 27.468C33.3239 27.3056 33.3819 27.1664 33.4979 27.0504C33.6155 26.9344 33.7564 26.8764 33.9205 26.8764C34.0795 26.8764 34.2188 26.9344 34.3381 27.0504C34.4574 27.1664 34.517 27.3056 34.517 27.468C34.517 27.5774 34.4889 27.6777 34.4325 27.7688C34.3778 27.8583 34.3058 27.9304 34.2163 27.9851C34.1268 28.0381 34.0282 28.0646 33.9205 28.0646Z" fill="white"/>
</svg>
