<svg width="40" height="40" viewBox="0 0 40 40" fill="none" xmlns="http://www.w3.org/2000/svg">
<path d="M12.6943 0.5H26.793L38.5 12.207V34.793C38.4998 37.3646 36.2642 39.4999 33.4404 39.5H12.5703C9.73516 39.5 7.50023 37.364 7.5 34.793V5.20703C7.50013 2.64972 9.84436 0.500142 12.6943 0.5Z" fill="white" stroke="#DBDBDB"/>
<path d="M27.0257 8.16V0L39 12H31.0171C27.4248 12 26.8593 9.44 27.0257 8.16Z" fill="#D4D4D8"/>
<rect x="1" y="19" width="26" height="12" rx="3" fill="#D92D20"/>
<path d="M10.2146 22.141H11.1456V25.809H10.2146V22.141ZM6.83359 26.096H11.1456V28.553H6.83359V26.096ZM10.2356 26.831H7.75059V27.818H10.2356V26.831ZM7.61759 22.435C7.95359 22.435 8.25459 22.5027 8.52059 22.638C8.78659 22.7687 8.99659 22.9507 9.15059 23.184C9.30459 23.4173 9.38159 23.6857 9.38159 23.989C9.38159 24.2923 9.30459 24.563 9.15059 24.801C8.99659 25.0343 8.78659 25.2187 8.52059 25.354C8.25459 25.4847 7.95359 25.55 7.61759 25.55C7.28159 25.55 6.98059 25.4847 6.71459 25.354C6.44859 25.2187 6.23859 25.0343 6.08459 24.801C5.93059 24.563 5.85359 24.2923 5.85359 23.989C5.85359 23.6857 5.93059 23.4173 6.08459 23.184C6.23859 22.9507 6.44859 22.7687 6.71459 22.638C6.98059 22.5027 7.28159 22.435 7.61759 22.435ZM7.61759 23.205C7.45892 23.205 7.31425 23.2377 7.18359 23.303C7.05292 23.3637 6.95025 23.4523 6.87559 23.569C6.80092 23.681 6.76359 23.821 6.76359 23.989C6.76359 24.1523 6.80092 24.2947 6.87559 24.416C6.95025 24.5327 7.05292 24.6213 7.18359 24.682C7.31425 24.7427 7.45892 24.773 7.61759 24.773C7.78092 24.773 7.92559 24.7427 8.05159 24.682C8.18225 24.6213 8.28492 24.5327 8.35959 24.416C8.43425 24.2947 8.47159 24.1523 8.47159 23.989C8.47159 23.821 8.43425 23.681 8.35959 23.569C8.28492 23.4523 8.18225 23.3637 8.05159 23.303C7.92559 23.2377 7.78092 23.205 7.61759 23.205ZM12.923 22.428H17.025V23.163H12.923V22.428ZM12.202 24.759H18.075V25.494H12.202V24.759ZM16.465 22.428H17.382V22.946C17.382 23.2213 17.375 23.5177 17.361 23.835C17.347 24.1523 17.291 24.521 17.193 24.941L16.262 24.934C16.3647 24.5093 16.423 24.1407 16.437 23.828C16.4557 23.5153 16.465 23.2213 16.465 22.946V22.428ZM12.888 26.173H17.354V28.553H12.888V26.173ZM16.444 26.901H13.805V27.818H16.444V26.901ZM19.396 28.0646C19.232 28.0646 19.0911 28.0066 18.9735 27.8906C18.8575 27.773 18.7994 27.6321 18.7994 27.468C18.7994 27.3056 18.8575 27.1664 18.9735 27.0504C19.0911 26.9344 19.232 26.8764 19.396 26.8764C19.5551 26.8764 19.6943 26.9344 19.8137 27.0504C19.933 27.1664 19.9926 27.3056 19.9926 27.468C19.9926 27.5774 19.9645 27.6777 19.9081 27.7688C19.8534 27.8583 19.7813 27.9304 19.6919 27.9851C19.6024 28.0381 19.5038 28.0646 19.396 28.0646ZM21.481 28.0646C21.3169 28.0646 21.1761 28.0066 21.0584 27.8906C20.9424 27.773 20.8844 27.6321 20.8844 27.468C20.8844 27.3056 20.9424 27.1664 21.0584 27.0504C21.1761 26.9344 21.3169 26.8764 21.481 26.8764C21.6401 26.8764 21.7793 26.9344 21.8986 27.0504C22.0179 27.1664 22.0776 27.3056 22.0776 27.468C22.0776 27.5774 22.0494 27.6777 21.9931 27.7688C21.9384 27.8583 21.8663 27.9304 21.7768 27.9851C21.6873 28.0381 21.5887 28.0646 21.481 28.0646Z" fill="white"/>
</svg>
