<svg width="40" height="40" viewBox="0 0 40 40" fill="none" xmlns="http://www.w3.org/2000/svg">
<path d="M12.6943 0.5H26.793L38.5 12.207V34.793C38.4998 37.3646 36.2642 39.4999 33.4404 39.5H12.5703C9.73516 39.5 7.50023 37.364 7.5 34.793V5.20703C7.50013 2.64972 9.84436 0.500142 12.6943 0.5Z" fill="white" stroke="#DBDBDB"/>
<path d="M27.0257 8.16V0L39 12H31.0171C27.4248 12 26.8593 9.44 27.0257 8.16Z" fill="#D4D4D8"/>
<rect x="1" y="19" width="38" height="12" rx="3" fill="#D92D20"/>
<path d="M6.04413 22.491H10.1391V23.233H6.04413V22.491ZM5.32313 25.004H11.1961V25.746H5.32313V25.004ZM9.58613 22.491H10.5101V23.051C10.5101 23.359 10.5008 23.6927 10.4821 24.052C10.4681 24.4113 10.4098 24.8243 10.3071 25.291L9.39013 25.207C9.48813 24.7497 9.54413 24.353 9.55813 24.017C9.5768 23.6763 9.58613 23.3543 9.58613 23.051V22.491ZM6.05813 27.762H10.6921V28.504H6.05813V27.762ZM6.05813 26.299H6.98213V27.832H6.05813V26.299ZM11.7626 27.153H17.6356V27.909H11.7626V27.153ZM14.2266 25.921H15.1506V27.454H14.2266V25.921ZM12.4276 22.554H16.9706V24.717H13.3586V25.802H12.4346V23.989H16.0466V23.296H12.4276V22.554ZM12.4346 25.438H17.1176V26.18H12.4346V25.438ZM22.668 22.134H23.599V28.616H22.668V22.134ZM20.757 22.806H21.674C21.674 23.3007 21.625 23.7743 21.527 24.227C21.4337 24.675 21.275 25.0973 21.051 25.494C20.8317 25.8907 20.5284 26.2593 20.141 26.6C19.7584 26.936 19.28 27.244 18.706 27.524L18.216 26.789C18.8414 26.4857 19.3384 26.152 19.707 25.788C20.0804 25.4193 20.3487 25.004 20.512 24.542C20.6754 24.0753 20.757 23.5527 20.757 22.974V22.806ZM18.566 22.806H21.191V23.548H18.566V22.806ZM26.9305 22.82H27.7565V22.981C27.7565 23.2377 27.7005 23.4827 27.5885 23.716C27.4812 23.9447 27.3225 24.1523 27.1125 24.339C26.9025 24.521 26.6388 24.6773 26.3215 24.808C26.0088 24.934 25.6472 25.0203 25.2365 25.067L24.8935 24.332C25.1735 24.2993 25.4232 24.2503 25.6425 24.185C25.8665 24.1197 26.0578 24.0403 26.2165 23.947C26.3798 23.8537 26.5128 23.7557 26.6155 23.653C26.7228 23.5457 26.8022 23.436 26.8535 23.324C26.9048 23.2073 26.9305 23.093 26.9305 22.981V22.82ZM27.3855 22.82H28.2045V22.981C28.2045 23.093 28.2302 23.2073 28.2815 23.324C28.3328 23.436 28.4122 23.5457 28.5195 23.653C28.6268 23.7603 28.7598 23.8607 28.9185 23.954C29.0772 24.0427 29.2662 24.1197 29.4855 24.185C29.7095 24.2503 29.9615 24.2993 30.2415 24.332L29.9055 25.067C29.4902 25.0203 29.1262 24.934 28.8135 24.808C28.5008 24.682 28.2372 24.5257 28.0225 24.339C27.8125 24.1523 27.6538 23.9447 27.5465 23.716C27.4392 23.4827 27.3855 23.2377 27.3855 22.981V22.82ZM25.1735 22.414H29.9755V23.149H25.1735V22.414ZM24.6345 25.361H30.5075V26.103H24.6345V25.361ZM27.1825 25.837H28.1135V27.202H27.1825V25.837ZM25.3135 27.762H29.8565V28.511H25.3135V27.762ZM25.3135 26.642H26.2445V28.028H25.3135V26.642ZM31.8355 28.0646C31.6714 28.0646 31.5306 28.0066 31.4129 27.8906C31.2969 27.773 31.2389 27.6321 31.2389 27.468C31.2389 27.3056 31.2969 27.1664 31.4129 27.0504C31.5306 26.9344 31.6714 26.8764 31.8355 26.8764C31.9946 26.8764 32.1338 26.9344 32.2531 27.0504C32.3724 27.1664 32.4321 27.3056 32.4321 27.468C32.4321 27.5774 32.4039 27.6777 32.3476 27.7688C32.2929 27.8583 32.2208 27.9304 32.1313 27.9851C32.0418 28.0381 31.9432 28.0646 31.8355 28.0646ZM33.9205 28.0646C33.7564 28.0646 33.6155 28.0066 33.4979 27.8906C33.3819 27.773 33.3239 27.6321 33.3239 27.468C33.3239 27.3056 33.3819 27.1664 33.4979 27.0504C33.6155 26.9344 33.7564 26.8764 33.9205 26.8764C34.0795 26.8764 34.2188 26.9344 34.3381 27.0504C34.4574 27.1664 34.517 27.3056 34.517 27.468C34.517 27.5774 34.4889 27.6777 34.4325 27.7688C34.3778 27.8583 34.3058 27.9304 34.2163 27.9851C34.1268 28.0381 34.0282 28.0646 33.9205 28.0646Z" fill="white"/>
</svg>
