<svg width="40" height="40" viewBox="0 0 40 40" fill="none" xmlns="http://www.w3.org/2000/svg">
<path d="M12.6943 0.5H26.793L38.5 12.207V34.793C38.4998 37.3646 36.2642 39.4999 33.4404 39.5H12.5703C9.73516 39.5 7.50023 37.364 7.5 34.793V5.20703C7.50013 2.64972 9.84436 0.500142 12.6943 0.5Z" fill="white" stroke="#DBDBDB"/>
<path d="M27.0257 8.16V0L39 12H31.0171C27.4248 12 26.8593 9.44 27.0257 8.16Z" fill="#D4D4D8"/>
<rect x="1" y="19" width="38" height="12" rx="3" fill="#D92D20"/>
<path d="M6.77213 22.533H7.54213V23.233C7.54213 23.6623 7.47447 24.066 7.33913 24.444C7.20847 24.8173 7.0078 25.144 6.73713 25.424C6.47113 25.704 6.13047 25.914 5.71513 26.054L5.21813 25.333C5.5868 25.2117 5.88547 25.0437 6.11413 24.829C6.3428 24.6097 6.50847 24.3623 6.61113 24.087C6.71847 23.807 6.77213 23.5223 6.77213 23.233V22.533ZM6.96113 22.533H7.71713V23.24C7.71713 23.4453 7.74513 23.6483 7.80113 23.849C7.85713 24.045 7.9458 24.2317 8.06713 24.409C8.18847 24.5817 8.34247 24.738 8.52913 24.878C8.7158 25.0133 8.9398 25.123 9.20113 25.207L8.72513 25.935C8.31913 25.7997 7.98547 25.599 7.72413 25.333C7.46747 25.0623 7.27613 24.7473 7.15013 24.388C7.02413 24.0287 6.96113 23.646 6.96113 23.24V22.533ZM9.48813 22.141H10.4191V26.88H9.48813V22.141ZM10.1601 24.017H11.2801V24.78H10.1601V24.017ZM6.24713 27.762H10.6501V28.511H6.24713V27.762ZM6.24713 26.425H7.18513V28.161H6.24713V26.425ZM15.0386 23.569H16.6626V24.318H15.0386V23.569ZM13.5476 22.407C13.8743 22.407 14.1659 22.4747 14.4226 22.61C14.6839 22.7407 14.8893 22.9227 15.0386 23.156C15.1879 23.3847 15.2626 23.6507 15.2626 23.954C15.2626 24.2527 15.1879 24.5187 15.0386 24.752C14.8893 24.9853 14.6839 25.1697 14.4226 25.305C14.1659 25.4357 13.8743 25.501 13.5476 25.501C13.2256 25.501 12.9339 25.4357 12.6726 25.305C12.4159 25.1697 12.2129 24.9853 12.0636 24.752C11.9143 24.5187 11.8396 24.2527 11.8396 23.954C11.8396 23.6507 11.9143 23.3847 12.0636 23.156C12.2129 22.9227 12.4159 22.7407 12.6726 22.61C12.9339 22.4747 13.2256 22.407 13.5476 22.407ZM13.5476 23.177C13.3889 23.177 13.2466 23.2073 13.1206 23.268C12.9993 23.3287 12.9036 23.4173 12.8336 23.534C12.7636 23.6507 12.7286 23.7907 12.7286 23.954C12.7286 24.1127 12.7636 24.2503 12.8336 24.367C12.9036 24.4837 12.9993 24.5723 13.1206 24.633C13.2466 24.6937 13.3889 24.724 13.5476 24.724C13.7063 24.724 13.8463 24.6937 13.9676 24.633C14.0936 24.5723 14.1916 24.4837 14.2616 24.367C14.3316 24.2503 14.3666 24.1127 14.3666 23.954C14.3666 23.7907 14.3316 23.6507 14.2616 23.534C14.1916 23.4173 14.0936 23.3287 13.9676 23.268C13.8463 23.2073 13.7063 23.177 13.5476 23.177ZM16.2496 22.141H17.1876V25.62H16.2496V22.141ZM12.8826 25.907H13.8066V26.516H16.2636V25.907H17.1876V28.553H12.8826V25.907ZM13.8066 27.23V27.811H16.2636V27.23H13.8066ZM22.367 22.141H23.298V26.852H22.367V22.141ZM23.039 23.989H24.159V24.759H23.039V23.989ZM19.119 27.762H23.529V28.511H19.119V27.762ZM19.119 26.362H20.057V28.098H19.119V26.362ZM20.001 22.554C20.3324 22.554 20.631 22.624 20.897 22.764C21.163 22.904 21.373 23.0977 21.527 23.345C21.6857 23.5923 21.765 23.877 21.765 24.199C21.765 24.5163 21.6857 24.801 21.527 25.053C21.373 25.3003 21.163 25.4963 20.897 25.641C20.631 25.781 20.3324 25.851 20.001 25.851C19.6697 25.851 19.371 25.781 19.105 25.641C18.839 25.4963 18.629 25.3003 18.475 25.053C18.321 24.801 18.244 24.5163 18.244 24.199C18.244 23.877 18.321 23.5923 18.475 23.345C18.629 23.0977 18.839 22.904 19.105 22.764C19.371 22.624 19.6697 22.554 20.001 22.554ZM20.001 23.359C19.8424 23.359 19.6977 23.394 19.567 23.464C19.441 23.5293 19.3407 23.625 19.266 23.751C19.1914 23.8723 19.154 24.0217 19.154 24.199C19.154 24.3763 19.1914 24.528 19.266 24.654C19.3407 24.7753 19.441 24.871 19.567 24.941C19.6977 25.0063 19.8424 25.039 20.001 25.039C20.1644 25.039 20.309 25.0063 20.435 24.941C20.5657 24.871 20.6684 24.7753 20.743 24.654C20.8177 24.528 20.855 24.3763 20.855 24.199C20.855 24.0217 20.8177 23.8723 20.743 23.751C20.6684 23.625 20.5657 23.5293 20.435 23.464C20.309 23.394 20.1644 23.359 20.001 23.359ZM28.1135 23.814H29.6185V24.563H28.1135V23.814ZM29.1285 22.141H30.0665V26.866H29.1285V22.141ZM25.7825 27.762H30.2135V28.511H25.7825V27.762ZM25.7825 26.467H26.7135V28.203H25.7825V26.467ZM26.1395 22.988H26.8955V23.394C26.8955 23.8047 26.8302 24.1943 26.6995 24.563C26.5688 24.9317 26.3682 25.256 26.0975 25.536C25.8315 25.8113 25.4885 26.019 25.0685 26.159L24.6065 25.417C24.8725 25.3283 25.1012 25.214 25.2925 25.074C25.4885 24.9293 25.6472 24.766 25.7685 24.584C25.8945 24.402 25.9878 24.2107 26.0485 24.01C26.1092 23.8093 26.1395 23.604 26.1395 23.394V22.988ZM26.3355 22.988H27.0775V23.394C27.0775 23.646 27.1288 23.898 27.2315 24.15C27.3342 24.3973 27.4928 24.6237 27.7075 24.829C27.9268 25.0297 28.2068 25.1883 28.5475 25.305L28.0925 26.026C27.6912 25.8907 27.3598 25.6923 27.0985 25.431C26.8418 25.165 26.6505 24.857 26.5245 24.507C26.3985 24.1523 26.3355 23.7813 26.3355 23.394V22.988ZM24.8585 22.575H28.3445V23.317H24.8585V22.575ZM31.8355 28.0646C31.6714 28.0646 31.5306 28.0066 31.4129 27.8906C31.2969 27.773 31.2389 27.6321 31.2389 27.468C31.2389 27.3056 31.2969 27.1664 31.4129 27.0504C31.5306 26.9344 31.6714 26.8764 31.8355 26.8764C31.9946 26.8764 32.1338 26.9344 32.2531 27.0504C32.3724 27.1664 32.4321 27.3056 32.4321 27.468C32.4321 27.5774 32.4039 27.6777 32.3476 27.7688C32.2929 27.8583 32.2208 27.9304 32.1313 27.9851C32.0418 28.0381 31.9432 28.0646 31.8355 28.0646ZM33.9205 28.0646C33.7564 28.0646 33.6155 28.0066 33.4979 27.8906C33.3819 27.773 33.3239 27.6321 33.3239 27.468C33.3239 27.3056 33.3819 27.1664 33.4979 27.0504C33.6155 26.9344 33.7564 26.8764 33.9205 26.8764C34.0795 26.8764 34.2188 26.9344 34.3381 27.0504C34.4574 27.1664 34.517 27.3056 34.517 27.468C34.517 27.5774 34.4889 27.6777 34.4325 27.7688C34.3778 27.8583 34.3058 27.9304 34.2163 27.9851C34.1268 28.0381 34.0282 28.0646 33.9205 28.0646Z" fill="white"/>
</svg>
