<svg width="40" height="40" viewBox="0 0 40 40" fill="none" xmlns="http://www.w3.org/2000/svg">
<path d="M12.6943 0.5H26.793L38.5 12.207V34.793C38.4998 37.3646 36.2642 39.4999 33.4404 39.5H12.5703C9.73516 39.5 7.50023 37.364 7.5 34.793V5.20703C7.50013 2.64972 9.84436 0.500142 12.6943 0.5Z" fill="white" stroke="#DBDBDB"/>
<path d="M27.0257 8.16V0L39 12H31.0171C27.4248 12 26.8593 9.44 27.0257 8.16Z" fill="#D4D4D8"/>
<rect x="1" y="19" width="26" height="12" rx="3" fill="#D92D20"/>
<path d="M6.08459 22.645H9.22759V25.788H6.08459V22.645ZM8.31759 23.387H7.00159V25.046H8.31759V23.387ZM10.2146 22.141H11.1456V26.747H10.2146V22.141ZM6.82659 27.741H11.3136V28.483H6.82659V27.741ZM6.82659 26.334H7.75759V28.07H6.82659V26.334ZM12.468 22.47H13.392V23.289H14.624V22.47H15.541V25.501H12.468V22.47ZM13.392 23.996V24.752H14.624V23.996H13.392ZM15.331 23.611H16.906V24.367H15.331V23.611ZM16.689 22.141H17.627V25.69H16.689V22.141ZM13.322 25.963H14.246V26.537H16.703V25.963H17.62V28.539H13.322V25.963ZM14.246 27.258V27.804H16.703V27.258H14.246ZM19.396 28.0646C19.232 28.0646 19.0911 28.0066 18.9735 27.8906C18.8575 27.773 18.7994 27.6321 18.7994 27.468C18.7994 27.3056 18.8575 27.1664 18.9735 27.0504C19.0911 26.9344 19.232 26.8764 19.396 26.8764C19.5551 26.8764 19.6943 26.9344 19.8137 27.0504C19.933 27.1664 19.9926 27.3056 19.9926 27.468C19.9926 27.5774 19.9645 27.6777 19.9081 27.7688C19.8534 27.8583 19.7813 27.9304 19.6919 27.9851C19.6024 28.0381 19.5038 28.0646 19.396 28.0646ZM21.481 28.0646C21.3169 28.0646 21.1761 28.0066 21.0584 27.8906C20.9424 27.773 20.8844 27.6321 20.8844 27.468C20.8844 27.3056 20.9424 27.1664 21.0584 27.0504C21.1761 26.9344 21.3169 26.8764 21.481 26.8764C21.6401 26.8764 21.7793 26.9344 21.8986 27.0504C22.0179 27.1664 22.0776 27.3056 22.0776 27.468C22.0776 27.5774 22.0494 27.6777 21.9931 27.7688C21.9384 27.8583 21.8663 27.9304 21.7768 27.9851C21.6873 28.0381 21.5887 28.0646 21.481 28.0646Z" fill="white"/>
</svg>
