<svg width="40" height="40" viewBox="0 0 40 40" fill="none" xmlns="http://www.w3.org/2000/svg">
<path d="M12.6943 0.5H26.793L38.5 12.207V34.793C38.4998 37.3646 36.2642 39.4999 33.4404 39.5H12.5703C9.73516 39.5 7.50023 37.364 7.5 34.793V5.20703C7.50013 2.64972 9.84436 0.500142 12.6943 0.5Z" fill="white" stroke="#DBDBDB"/>
<path d="M27.0257 8.16V0L39 12H31.0171C27.4248 12 26.8593 9.44 27.0257 8.16Z" fill="#D4D4D8"/>
<rect x="1" y="19" width="38" height="12" rx="3" fill="#D92D20"/>
<path d="M5.92513 22.687H10.0271V23.429H5.92513V22.687ZM5.32313 27.083H11.1891V27.839H5.32313V27.083ZM7.39513 24.857H8.33313V27.461H7.39513V24.857ZM9.69113 22.687H10.6291V23.303C10.6291 23.5737 10.6245 23.8607 10.6151 24.164C10.6105 24.4673 10.5895 24.8033 10.5521 25.172C10.5195 25.5407 10.4588 25.9537 10.3701 26.411L9.43913 26.313C9.5698 25.6643 9.64447 25.0997 9.66313 24.619C9.6818 24.1337 9.69113 23.695 9.69113 23.303V22.687ZM13.0786 24.304H14.0026V25.494H13.0786V24.304ZM15.3536 24.304H16.2846V25.494H15.3536V24.304ZM11.7556 25.214H17.6216V25.942H11.7556V25.214ZM14.6746 26.271C15.3746 26.271 15.9253 26.3737 16.3266 26.579C16.7279 26.7797 16.9286 27.069 16.9286 27.447C16.9286 27.8203 16.7279 28.1097 16.3266 28.315C15.9253 28.5203 15.3746 28.623 14.6746 28.623C13.9746 28.623 13.4239 28.5203 13.0226 28.315C12.6259 28.1097 12.4276 27.8203 12.4276 27.447C12.4276 27.069 12.6259 26.7797 13.0226 26.579C13.4239 26.3737 13.9746 26.271 14.6746 26.271ZM14.6746 26.971C14.3853 26.971 14.1426 26.9897 13.9466 27.027C13.7553 27.0597 13.6106 27.111 13.5126 27.181C13.4146 27.251 13.3656 27.3397 13.3656 27.447C13.3656 27.5543 13.4146 27.6453 13.5126 27.72C13.6106 27.79 13.7553 27.8413 13.9466 27.874C14.1426 27.9067 14.3853 27.923 14.6746 27.923C14.9639 27.923 15.2043 27.9067 15.3956 27.874C15.5916 27.8413 15.7386 27.79 15.8366 27.72C15.9346 27.6453 15.9836 27.5543 15.9836 27.447C15.9836 27.3397 15.9346 27.251 15.8366 27.181C15.7386 27.111 15.5916 27.0597 15.3956 27.027C15.2043 26.9897 14.9639 26.971 14.6746 26.971ZM14.6886 22.232C15.1693 22.232 15.5846 22.2833 15.9346 22.386C16.2893 22.484 16.5623 22.6263 16.7536 22.813C16.9449 22.9997 17.0406 23.2213 17.0406 23.478C17.0406 23.7347 16.9449 23.9563 16.7536 24.143C16.5623 24.325 16.2893 24.4673 15.9346 24.57C15.5846 24.668 15.1693 24.717 14.6886 24.717C14.2173 24.717 13.8043 24.668 13.4496 24.57C13.0949 24.4673 12.8219 24.325 12.6306 24.143C12.4393 23.9563 12.3436 23.7347 12.3436 23.478C12.3436 23.2213 12.4393 22.9997 12.6306 22.813C12.8219 22.6263 13.0949 22.484 13.4496 22.386C13.8043 22.2833 14.2173 22.232 14.6886 22.232ZM14.6886 22.939C14.3993 22.939 14.1496 22.96 13.9396 23.002C13.7296 23.0393 13.5709 23.0977 13.4636 23.177C13.3609 23.2563 13.3096 23.3567 13.3096 23.478C13.3096 23.5947 13.3609 23.6927 13.4636 23.772C13.5709 23.8513 13.7296 23.912 13.9396 23.954C14.1496 23.9913 14.3993 24.01 14.6886 24.01C14.9873 24.01 15.2393 23.9913 15.4446 23.954C15.6499 23.912 15.8063 23.8513 15.9136 23.772C16.0209 23.6927 16.0746 23.5947 16.0746 23.478C16.0746 23.3567 16.0209 23.2563 15.9136 23.177C15.8063 23.0977 15.6499 23.0393 15.4446 23.002C15.2393 22.96 14.9873 22.939 14.6886 22.939ZM18.202 27.111H24.075V27.867H18.202V27.111ZM20.666 25.725H21.59V27.293H20.666V25.725ZM18.818 22.547H19.749V23.548H22.507V22.547H23.431V25.921H18.818V22.547ZM19.749 24.276V25.179H22.507V24.276H19.749ZM29.1285 22.141H30.0665V26.054H29.1285V22.141ZM28.3235 24.031H29.5065V24.787H28.3235V24.031ZM25.7405 26.327H30.0665V28.553H25.7405V26.327ZM29.1495 27.055H26.6575V27.818H29.1495V27.055ZM24.6555 22.701H28.4425V23.436H24.6555V22.701ZM26.5525 23.646C26.8558 23.646 27.1242 23.695 27.3575 23.793C27.5908 23.891 27.7728 24.0287 27.9035 24.206C28.0388 24.3787 28.1065 24.5817 28.1065 24.815C28.1065 25.0437 28.0388 25.2467 27.9035 25.424C27.7728 25.5967 27.5908 25.732 27.3575 25.83C27.1242 25.928 26.8558 25.977 26.5525 25.977C26.2538 25.977 25.9855 25.928 25.7475 25.83C25.5142 25.732 25.3298 25.5967 25.1945 25.424C25.0638 25.2467 24.9985 25.0437 24.9985 24.815C24.9985 24.5817 25.0638 24.3787 25.1945 24.206C25.3298 24.0287 25.5142 23.891 25.7475 23.793C25.9855 23.695 26.2538 23.646 26.5525 23.646ZM26.5595 24.332C26.4242 24.332 26.3052 24.3507 26.2025 24.388C26.1045 24.4253 26.0275 24.479 25.9715 24.549C25.9155 24.619 25.8875 24.7053 25.8875 24.808C25.8875 24.9153 25.9155 25.0063 25.9715 25.081C26.0275 25.151 26.1068 25.2047 26.2095 25.242C26.3122 25.2793 26.4265 25.298 26.5525 25.298C26.6878 25.298 26.8045 25.2793 26.9025 25.242C27.0005 25.2047 27.0775 25.151 27.1335 25.081C27.1895 25.0063 27.2175 24.9153 27.2175 24.808C27.2175 24.7053 27.1895 24.619 27.1335 24.549C27.0775 24.479 27.0005 24.4253 26.9025 24.388C26.8045 24.3507 26.6902 24.332 26.5595 24.332ZM26.0905 22.085H27.0145V23.219H26.0905V22.085ZM31.8355 28.0646C31.6714 28.0646 31.5306 28.0066 31.4129 27.8906C31.2969 27.773 31.2389 27.6321 31.2389 27.468C31.2389 27.3056 31.2969 27.1664 31.4129 27.0504C31.5306 26.9344 31.6714 26.8764 31.8355 26.8764C31.9946 26.8764 32.1338 26.9344 32.2531 27.0504C32.3724 27.1664 32.4321 27.3056 32.4321 27.468C32.4321 27.5774 32.4039 27.6777 32.3476 27.7688C32.2929 27.8583 32.2208 27.9304 32.1313 27.9851C32.0418 28.0381 31.9432 28.0646 31.8355 28.0646ZM33.9205 28.0646C33.7564 28.0646 33.6155 28.0066 33.4979 27.8906C33.3819 27.773 33.3239 27.6321 33.3239 27.468C33.3239 27.3056 33.3819 27.1664 33.4979 27.0504C33.6155 26.9344 33.7564 26.8764 33.9205 26.8764C34.0795 26.8764 34.2188 26.9344 34.3381 27.0504C34.4574 27.1664 34.517 27.3056 34.517 27.468C34.517 27.5774 34.4889 27.6777 34.4325 27.7688C34.3778 27.8583 34.3058 27.9304 34.2163 27.9851C34.1268 28.0381 34.0282 28.0646 33.9205 28.0646Z" fill="white"/>
</svg>
