<svg width="177" height="49" viewBox="0 0 177 49" fill="none" xmlns="http://www.w3.org/2000/svg">
<path d="M7.18 32.5V15.7H14.86C16.396 15.7 17.716 15.948 18.82 16.444C19.94 16.94 20.804 17.66 21.412 18.604C22.02 19.532 22.324 20.636 22.324 21.916C22.324 23.18 22.02 24.276 21.412 25.204C20.804 26.132 19.94 26.852 18.82 27.364C17.716 27.86 16.396 28.108 14.86 28.108H9.82L11.932 26.044V32.5H7.18ZM11.932 26.548L9.82 24.364H14.572C15.564 24.364 16.3 24.148 16.78 23.716C17.276 23.284 17.524 22.684 17.524 21.916C17.524 21.132 17.276 20.524 16.78 20.092C16.3 19.66 15.564 19.444 14.572 19.444H9.82L11.932 17.26V26.548ZM36.633 32.836C35.289 32.836 34.049 32.62 32.913 32.188C31.777 31.756 30.785 31.148 29.937 30.364C29.105 29.564 28.457 28.636 27.993 27.58C27.529 26.524 27.297 25.364 27.297 24.1C27.297 22.836 27.529 21.676 27.993 20.62C28.457 19.564 29.105 18.644 29.937 17.86C30.785 17.06 31.777 16.444 32.913 16.012C34.049 15.58 35.289 15.364 36.633 15.364C37.993 15.364 39.233 15.58 40.353 16.012C41.489 16.444 42.473 17.06 43.305 17.86C44.137 18.644 44.785 19.564 45.249 20.62C45.729 21.676 45.969 22.836 45.969 24.1C45.969 25.364 45.729 26.532 45.249 27.604C44.785 28.66 44.137 29.58 43.305 30.364C42.473 31.148 41.489 31.756 40.353 32.188C39.233 32.62 37.993 32.836 36.633 32.836ZM36.633 28.9C37.273 28.9 37.865 28.788 38.409 28.564C38.969 28.34 39.449 28.02 39.849 27.604C40.265 27.172 40.585 26.66 40.809 26.068C41.049 25.476 41.169 24.82 41.169 24.1C41.169 23.364 41.049 22.708 40.809 22.132C40.585 21.54 40.265 21.036 39.849 20.62C39.449 20.188 38.969 19.86 38.409 19.636C37.865 19.412 37.273 19.3 36.633 19.3C35.993 19.3 35.393 19.412 34.833 19.636C34.289 19.86 33.809 20.188 33.393 20.62C32.993 21.036 32.673 21.54 32.433 22.132C32.209 22.708 32.097 23.364 32.097 24.1C32.097 24.82 32.209 25.476 32.433 26.068C32.673 26.66 32.993 27.172 33.393 27.604C33.809 28.02 34.289 28.34 34.833 28.564C35.393 28.788 35.993 28.9 36.633 28.9ZM57.6476 32.836C56.2716 32.836 54.9436 32.668 53.6636 32.332C52.3996 31.98 51.3676 31.532 50.5676 30.988L52.1276 27.484C52.8796 27.964 53.7436 28.364 54.7196 28.684C55.7116 28.988 56.6956 29.14 57.6716 29.14C58.3276 29.14 58.8556 29.084 59.2556 28.972C59.6556 28.844 59.9436 28.684 60.1196 28.492C60.3116 28.284 60.4076 28.044 60.4076 27.772C60.4076 27.388 60.2316 27.084 59.8796 26.86C59.5276 26.636 59.0716 26.452 58.5116 26.308C57.9516 26.164 57.3276 26.02 56.6396 25.876C55.9676 25.732 55.2876 25.548 54.5996 25.324C53.9276 25.1 53.3116 24.812 52.7516 24.46C52.1916 24.092 51.7356 23.62 51.3836 23.044C51.0316 22.452 50.8556 21.708 50.8556 20.812C50.8556 19.804 51.1276 18.892 51.6716 18.076C52.2316 17.26 53.0636 16.604 54.1676 16.108C55.2716 15.612 56.6476 15.364 58.2956 15.364C59.3996 15.364 60.4796 15.492 61.5356 15.748C62.6076 15.988 63.5596 16.348 64.3916 16.828L62.9276 20.356C62.1276 19.924 61.3356 19.604 60.5516 19.396C59.7676 19.172 59.0076 19.06 58.2716 19.06C57.6156 19.06 57.0876 19.132 56.6876 19.276C56.2876 19.404 55.9996 19.58 55.8236 19.804C55.6476 20.028 55.5596 20.284 55.5596 20.572C55.5596 20.94 55.7276 21.236 56.0636 21.46C56.4156 21.668 56.8716 21.844 57.4316 21.988C58.0076 22.116 58.6316 22.252 59.3036 22.396C59.9916 22.54 60.6716 22.724 61.3436 22.948C62.0316 23.156 62.6556 23.444 63.2156 23.812C63.7756 24.164 64.2236 24.636 64.5596 25.228C64.9116 25.804 65.0876 26.532 65.0876 27.412C65.0876 28.388 64.8076 29.292 64.2476 30.124C63.7036 30.94 62.8796 31.596 61.7756 32.092C60.6876 32.588 59.3116 32.836 57.6476 32.836ZM73.91 32.5V19.468H68.75V15.7H83.798V19.468H78.662V32.5H73.91Z" fill="#0f172a"/>
<path d="M88.8541 32.5V15.7H92.7661L99.7261 27.124H97.6621L104.43 15.7H108.342L108.39 32.5H104.022L103.974 22.348H104.718L99.6541 30.844H97.5421L92.3341 22.348H93.2461V32.5H88.8541ZM123.51 32.836C122.166 32.836 120.926 32.62 119.79 32.188C118.654 31.756 117.662 31.148 116.814 30.364C115.982 29.564 115.334 28.636 114.87 27.58C114.406 26.524 114.174 25.364 114.174 24.1C114.174 22.836 114.406 21.676 114.87 20.62C115.334 19.564 115.982 18.644 116.814 17.86C117.662 17.06 118.654 16.444 119.79 16.012C120.926 15.58 122.166 15.364 123.51 15.364C124.87 15.364 126.11 15.58 127.23 16.012C128.366 16.444 129.35 17.06 130.182 17.86C131.014 18.644 131.662 19.564 132.126 20.62C132.606 21.676 132.846 22.836 132.846 24.1C132.846 25.364 132.606 26.532 132.126 27.604C131.662 28.66 131.014 29.58 130.182 30.364C129.35 31.148 128.366 31.756 127.23 32.188C126.11 32.62 124.87 32.836 123.51 32.836ZM123.51 28.9C124.15 28.9 124.742 28.788 125.286 28.564C125.846 28.34 126.326 28.02 126.726 27.604C127.142 27.172 127.462 26.66 127.686 26.068C127.926 25.476 128.046 24.82 128.046 24.1C128.046 23.364 127.926 22.708 127.686 22.132C127.462 21.54 127.142 21.036 126.726 20.62C126.326 20.188 125.846 19.86 125.286 19.636C124.742 19.412 124.15 19.3 123.51 19.3C122.87 19.3 122.27 19.412 121.71 19.636C121.166 19.86 120.686 20.188 120.27 20.62C119.87 21.036 119.55 21.54 119.31 22.132C119.086 22.708 118.974 23.364 118.974 24.1C118.974 24.82 119.086 25.476 119.31 26.068C119.55 26.66 119.87 27.172 120.27 27.604C120.686 28.02 121.166 28.34 121.71 28.564C122.27 28.788 122.87 28.9 123.51 28.9ZM138.621 32.5V15.7H142.533L149.493 27.124H147.429L154.197 15.7H158.109L158.157 32.5H153.789L153.741 22.348H154.485L149.421 30.844H147.309L142.101 22.348H143.013V32.5H138.621Z" fill="#1AA75F"/>
</svg>
